<svg xmlns="http://www.w3.org/2000/svg" viewBox="0 0 1200 900" role="img" aria-labelledby="title desc">
  <title id="title">Desert Express courier van in Phoenix</title>
  <desc id="desc">A branded delivery van driving through a stylized Phoenix business corridor at sunrise.</desc>
  <defs>
    <linearGradient id="sky" x1="0" x2="1" y1="0" y2="1">
      <stop offset="0" stop-color="#d8edf1"/>
      <stop offset="0.48" stop-color="#f2d2a3"/>
      <stop offset="1" stop-color="#eaa06c"/>
    </linearGradient>
    <linearGradient id="road" x1="0" x2="1">
      <stop offset="0" stop-color="#263643"/>
      <stop offset="1" stop-color="#17242e"/>
    </linearGradient>
    <filter id="shadow" x="-20%" y="-20%" width="140%" height="140%">
      <feDropShadow dx="0" dy="18" stdDeviation="18" flood-color="#152029" flood-opacity="0.24"/>
    </filter>
  </defs>
  <rect width="1200" height="900" fill="url(#sky)"/>
  <circle cx="914" cy="188" r="86" fill="#c68b32" opacity="0.92"/>
  <path d="M0 534 C174 480 321 526 482 492 C650 456 760 416 954 454 C1056 474 1140 462 1200 442 L1200 900 L0 900 Z" fill="#d8bd8e"/>
  <path d="M0 582 C210 520 352 594 530 546 C674 507 803 520 951 560 C1062 590 1134 560 1200 542 L1200 900 L0 900 Z" fill="#a77750" opacity="0.6"/>
  <g opacity="0.94">
    <rect x="92" y="274" width="92" height="276" rx="4" fill="#24475a"/>
    <rect x="208" y="230" width="126" height="320" rx="4" fill="#315d73"/>
    <rect x="362" y="308" width="88" height="242" rx="4" fill="#24475a"/>
    <rect x="800" y="270" width="118" height="280" rx="4" fill="#315d73"/>
    <rect x="946" y="330" width="72" height="220" rx="4" fill="#24475a"/>
    <rect x="1038" y="246" width="104" height="304" rx="4" fill="#315d73"/>
  </g>
  <g opacity="0.24" fill="#ffffff">
    <rect x="116" y="312" width="44" height="18"/>
    <rect x="116" y="360" width="44" height="18"/>
    <rect x="232" y="274" width="70" height="18"/>
    <rect x="232" y="326" width="70" height="18"/>
    <rect x="826" y="312" width="64" height="18"/>
    <rect x="826" y="364" width="64" height="18"/>
    <rect x="1064" y="292" width="54" height="18"/>
    <rect x="1064" y="344" width="54" height="18"/>
  </g>
  <path d="M0 652 L1200 574 L1200 900 L0 900 Z" fill="url(#road)"/>
  <path d="M-40 778 L1220 690" stroke="#f6f3ec" stroke-width="12" stroke-dasharray="90 70" opacity="0.85"/>
  <g filter="url(#shadow)" transform="translate(210 428)">
    <path d="M87 110 L535 76 C592 72 642 104 665 156 L696 226 L742 240 C762 246 776 264 776 285 L776 347 L65 398 L44 220 C37 160 37 114 87 110 Z" fill="#ffffff"/>
    <path d="M92 110 L316 93 L326 263 L62 282 L45 173 C39 133 55 113 92 110 Z" fill="#f5fafb"/>
    <path d="M342 91 L532 78 C578 75 614 96 634 137 L666 202 L354 224 Z" fill="#e8f2f4"/>
    <path d="M382 111 L522 101 C552 99 576 113 590 141 L606 174 L390 190 Z" fill="#276f95"/>
    <path d="M118 182 L296 169 L302 222 L124 235 Z" fill="#176b55"/>
    <text x="140" y="215" fill="#ffffff" font-size="37" font-family="Arial, sans-serif" font-weight="800">DX</text>
    <text x="206" y="213" fill="#ffffff" font-size="22" font-family="Arial, sans-serif" font-weight="700">DESERT EXPRESS</text>
    <path d="M43 280 L777 226 L777 348 L65 398 Z" fill="#f4f0e9"/>
    <path d="M60 332 L778 280" stroke="#c68b32" stroke-width="16"/>
    <circle cx="198" cy="372" r="70" fill="#152029"/>
    <circle cx="198" cy="372" r="35" fill="#d8e0e6"/>
    <circle cx="604" cy="342" r="70" fill="#152029"/>
    <circle cx="604" cy="342" r="35" fill="#d8e0e6"/>
    <path d="M696 228 L756 244 C766 247 773 256 775 266 L682 273 Z" fill="#b75b35"/>
  </g>
  <g fill="none" stroke="#176b55" stroke-width="9" stroke-linecap="round" opacity="0.78">
    <path d="M836 404 C890 348 950 344 1000 390"/>
    <path d="M855 430 C898 392 946 388 984 420"/>
    <path d="M878 454 C910 432 942 430 966 450"/>
  </g>
</svg>
